<svg width="177" height="59" viewBox="0 0 177 59" fill="none" xmlns="http://www.w3.org/2000/svg">
<path d="M36.1911 14.5605L32.5415 20.1565C28.5879 17.4193 24.5734 16.3245 19.2208 16.3245C12.6517 16.3245 11.0702 18.0276 11.0702 19.9132C11.0702 21.8596 12.8341 22.3462 15.4496 22.6503L25.5466 23.806C32.724 24.6576 37.1643 27.6988 37.1643 33.903C37.1643 41.4453 29.8044 44.8516 19.7074 44.8516C12.8341 44.8516 7.66399 43.3917 2.31136 39.4381L5.90006 33.538C10.5228 36.7618 15.0239 38.2216 20.559 38.2216C25.9116 38.2216 29.8044 36.8834 29.8044 34.0246C29.8044 32.1999 28.8312 31.2875 25.9724 30.9834L14.6589 29.7061C7.78564 28.9153 3.58869 26.239 3.58869 19.974C3.58869 12.8574 10.6444 9.57287 19.2208 9.57287C25.4858 9.57287 30.9601 10.6677 36.1911 14.5605ZM49.718 27.2122C49.718 34.1463 54.6449 38.3432 60.9707 38.3432C67.2966 38.3432 72.2234 34.1463 72.2234 27.2122C72.2234 20.2781 67.2966 16.0812 60.9707 16.0812C54.6449 16.0812 49.718 20.2781 49.718 27.2122ZM79.8266 27.2122C79.8266 37.7958 71.1894 44.8516 60.9707 44.8516C50.7521 44.8516 42.1149 37.7958 42.1149 27.2122C42.1149 16.6286 50.7521 9.57287 60.9707 9.57287C71.1894 9.57287 79.8266 16.6286 79.8266 27.2122Z" fill="white"/>
<circle cx="87.5238" cy="29.4999" r="4.52381" fill="#386FDE"/>
<path d="M95.0889 10.3636H114.918C122.825 10.3636 128.786 15.6554 128.786 23.5627C128.786 28.7328 126.231 32.6257 122.278 34.7546L127.448 44H119.176L115.222 36.5185H102.692V44H95.0889V10.3636ZM102.692 17.2977V29.5844H114.614C118.507 29.5844 121.183 27.4555 121.183 23.5627C121.183 19.6699 118.507 17.2977 114.614 17.2977H102.692ZM151.945 17.1152L145.68 32.2607H160.643L154.56 17.1152H151.945ZM147.2 10.3636H159.548L173.842 44H165.813L163.623 38.8907H142.882L140.692 44H132.542L147.2 10.3636Z" fill="white"/>
</svg>
