<svg width="98" height="33" viewBox="0 0 98 33" fill="none" xmlns="http://www.w3.org/2000/svg">
<path d="M20.0003 8.73083L17.9835 11.8233C15.7986 10.3107 13.5801 9.70564 10.622 9.70564C6.99171 9.70564 6.11775 10.6468 6.11775 11.6889C6.11775 12.7645 7.09255 13.0334 8.53795 13.2015L14.1179 13.8402C18.0843 14.3108 20.5381 15.9915 20.5381 19.4201C20.5381 23.5882 16.4709 25.4706 10.8909 25.4706C7.09255 25.4706 4.23536 24.6639 1.27733 22.479L3.26056 19.2184C5.81522 20.9999 8.30266 21.8067 11.3615 21.8067C14.3196 21.8067 16.4709 21.0672 16.4709 19.4873C16.4709 18.4789 15.933 17.9747 14.3532 17.8066L8.10097 17.1007C4.30259 16.6637 1.98323 15.1847 1.98323 11.7225C1.98323 7.78964 5.88245 5.97448 10.622 5.97448C14.0843 5.97448 17.1095 6.57953 20.0003 8.73083ZM27.4758 15.7225C27.4758 19.5545 30.1985 21.8739 33.6943 21.8739C37.1902 21.8739 39.9129 19.5545 39.9129 15.7225C39.9129 11.8905 37.1902 9.57118 33.6943 9.57118C30.1985 9.57118 27.4758 11.8905 27.4758 15.7225ZM44.1147 15.7225C44.1147 21.5714 39.3415 25.4706 33.6943 25.4706C28.0472 25.4706 23.274 21.5714 23.274 15.7225C23.274 9.87371 28.0472 5.97448 33.6943 5.97448C39.3415 5.97448 44.1147 9.87371 44.1147 15.7225Z" fill="white"/>
<circle cx="48.5" cy="16.5" r="2.5" fill="#386FDE"/>
<path d="M52.6807 6.41146H63.6389C68.0087 6.41146 71.3028 9.33588 71.3028 13.7057C71.3028 16.5629 69.8911 18.7142 67.7062 19.8907L70.5633 25H65.9918L63.8069 20.8655H56.8824V25H52.6807V6.41146ZM56.8824 10.2435V17.0335H63.4708C65.6221 17.0335 67.1011 15.857 67.1011 13.7057C67.1011 11.5544 65.6221 10.2435 63.4708 10.2435H56.8824ZM84.1011 10.1426L80.6389 18.5125H88.9079L85.5465 10.1426H84.1011ZM81.4792 6.41146H88.3029L96.2021 25H91.7651L90.555 22.1764H79.0926L77.8825 25H73.3782L81.4792 6.41146Z" fill="white"/>
</svg>
