<svg width="20" height="20" viewBox="0 0 20 20" fill="none" xmlns="http://www.w3.org/2000/svg">
<path d="M14.9595 4.20549C15.1731 4.20647 15.3777 4.29176 15.5287 4.4428C15.6798 4.59384 15.7651 4.79841 15.766 5.01201L15.766 12.6207C15.7699 12.729 15.7518 12.837 15.713 12.9382C15.6742 13.0394 15.6154 13.1317 15.5402 13.2097C15.4649 13.2876 15.3747 13.3497 15.2749 13.392C15.1752 13.4344 15.0679 13.4562 14.9595 13.4562C14.8511 13.4562 14.7439 13.4344 14.6441 13.392C14.5444 13.3497 14.4542 13.2876 14.3789 13.2097C14.3036 13.1317 14.2448 13.0394 14.206 12.9382C14.1672 12.837 14.1492 12.729 14.153 12.6207L14.153 6.95984L6.39974 14.7131C6.24839 14.8644 6.04312 14.9495 5.82909 14.9495C5.61505 14.9495 5.40978 14.8644 5.25843 14.7131C5.10709 14.5618 5.02206 14.3565 5.02206 14.1424C5.02206 13.9284 5.10709 13.7231 5.25843 13.5718L13.0117 5.81853L7.35083 5.81853C7.14185 5.81116 6.94389 5.72295 6.79866 5.57251C6.65343 5.42206 6.57227 5.22112 6.57227 5.01201C6.57227 4.8029 6.65344 4.60196 6.79866 4.45151C6.94389 4.30107 7.14185 4.21286 7.35082 4.20549L14.9595 4.20549Z" fill="#FBFBFB"/>
</svg>
